<svg width="247" height="66" viewBox="0 0 247 66" fill="none" xmlns="http://www.w3.org/2000/svg">
<path d="M33 9.23999C26.6985 9.23999 20.655 11.7433 16.1991 16.1991C11.7433 20.655 9.24001 26.6984 9.24001 33" stroke="#0A2E78" stroke-width="11.88"/>
<path d="M9.24001 35.64C9.24001 41.9416 11.7433 47.985 16.1991 52.4409C20.655 56.8967 26.6985 59.4 33 59.4" stroke="#0A2E78" stroke-width="11.88"/>
<path d="M35.64 59.4C41.9415 59.4 47.985 56.8967 52.4409 52.4409C56.8967 47.985 59.4 41.9416 59.4 35.64" stroke="#0A2E78" stroke-width="11.88"/>
<path d="M59.4 26.4V36.96" stroke="#0A2E78" stroke-width="11.88"/>
<path d="M58.74 6.59998H50.82C48.9975 6.59998 47.52 8.07744 47.52 9.89998V17.82C47.52 19.6425 48.9975 21.12 50.82 21.12H58.74C60.5625 21.12 62.04 19.6425 62.04 17.82V9.89998C62.04 8.07744 60.5625 6.59998 58.74 6.59998Z" fill="#0AAFC3"/>
<path d="M96.884 46.768C94.3831 46.768 92.0863 46.181 89.9936 45.0071C87.901 43.8332 86.2422 42.2126 85.0172 40.1455C83.7923 38.0529 83.1798 35.6923 83.1798 33.0637C83.1798 30.4607 83.7923 28.1256 85.0172 26.0585C86.2422 23.9658 87.901 22.3326 89.9936 21.1586C92.0863 19.9847 94.3831 19.3978 96.884 19.3978C99.4105 19.3978 101.707 19.9847 103.774 21.1586C105.867 22.3326 107.513 23.9658 108.713 26.0585C109.938 28.1256 110.55 30.4607 110.55 33.0637C110.55 35.6923 109.938 38.0529 108.713 40.1455C107.513 42.2126 105.867 43.8332 103.774 45.0071C101.682 46.181 99.385 46.768 96.884 46.768ZM96.884 41.983C98.4918 41.983 99.9082 41.6257 101.133 40.9111C102.358 40.171 103.315 39.1247 104.004 37.7722C104.693 36.4196 105.038 34.8501 105.038 33.0637C105.038 31.2773 104.693 29.7206 104.004 28.3936C103.315 27.041 102.358 26.0074 101.133 25.2929C99.9082 24.5783 98.4918 24.221 96.884 24.221C95.2763 24.221 93.8472 24.5783 92.5967 25.2929C91.3717 26.0074 90.4147 27.041 89.7257 28.3936C89.0366 29.7206 88.6921 31.2773 88.6921 33.0637C88.6921 34.8501 89.0366 36.4196 89.7257 37.7722C90.4147 39.1247 91.3717 40.171 92.5967 40.9111C93.8472 41.6257 95.2763 41.983 96.884 41.983ZM119.896 28.585C120.585 27.4621 121.479 26.5816 122.576 25.9436C123.699 25.3056 124.975 24.9866 126.404 24.9866V30.6138H124.988C123.303 30.6138 122.027 31.0094 121.16 31.8005C120.317 32.5916 119.896 33.9697 119.896 35.9347V46.5H114.537V25.2929H119.896V28.585ZM128.636 35.8199C128.636 33.6762 129.057 31.775 129.899 30.1162C130.766 28.4574 131.94 27.1814 133.421 26.2882C134.901 25.395 136.547 24.9484 138.359 24.9484C139.737 24.9484 141.051 25.2546 142.301 25.8671C143.552 26.454 144.547 27.2452 145.287 28.2404V18.1728H150.723V46.5H145.287V43.361C144.624 44.4074 143.692 45.2495 142.493 45.8875C141.293 46.5255 139.903 46.8445 138.32 46.8445C136.534 46.8445 134.901 46.3852 133.421 45.4664C131.94 44.5477 130.766 43.259 129.899 41.6002C129.057 39.9158 128.636 37.9891 128.636 35.8199ZM145.326 35.8964C145.326 34.5949 145.07 33.4848 144.56 32.5661C144.05 31.6218 143.361 30.9073 142.493 30.4224C141.625 29.912 140.694 29.6568 139.698 29.6568C138.703 29.6568 137.784 29.8992 136.942 30.3841C136.1 30.869 135.411 31.5836 134.875 32.5278C134.365 33.4465 134.11 34.5439 134.11 35.8199C134.11 37.0959 134.365 38.2188 134.875 39.1885C135.411 40.1328 136.1 40.8601 136.942 41.3705C137.81 41.8809 138.729 42.1361 139.698 42.1361C140.694 42.1361 141.625 41.8936 142.493 41.4088C143.361 40.8984 144.05 40.1838 144.56 39.2651C145.07 38.3208 145.326 37.198 145.326 35.8964ZM154.579 35.8199C154.579 33.6762 155 31.775 155.842 30.1162C156.71 28.4574 157.871 27.1814 159.326 26.2882C160.806 25.395 162.452 24.9484 164.264 24.9484C165.846 24.9484 167.224 25.2674 168.398 25.9054C169.598 26.5434 170.555 27.3472 171.269 28.317V25.2929H176.667V46.5H171.269V43.3993C170.58 44.3946 169.623 45.224 168.398 45.8875C167.199 46.5255 165.808 46.8445 164.226 46.8445C162.439 46.8445 160.806 46.3852 159.326 45.4664C157.871 44.5477 156.71 43.259 155.842 41.6002C155 39.9158 154.579 37.9891 154.579 35.8199ZM171.269 35.8964C171.269 34.5949 171.014 33.4848 170.504 32.5661C169.993 31.6218 169.304 30.9073 168.437 30.4224C167.569 29.912 166.637 29.6568 165.642 29.6568C164.647 29.6568 163.728 29.8992 162.886 30.3841C162.044 30.869 161.355 31.5836 160.819 32.5278C160.308 33.4465 160.053 34.5439 160.053 35.8199C160.053 37.0959 160.308 38.2188 160.819 39.1885C161.355 40.1328 162.044 40.8601 162.886 41.3705C163.754 41.8809 164.672 42.1361 165.642 42.1361C166.637 42.1361 167.569 41.8936 168.437 41.4088C169.304 40.8984 169.993 40.1838 170.504 39.2651C171.014 38.3208 171.269 37.198 171.269 35.8964ZM187.26 28.585C187.949 27.4621 188.842 26.5816 189.94 25.9436C191.063 25.3056 192.339 24.9866 193.768 24.9866V30.6138H192.351C190.667 30.6138 189.391 31.0094 188.523 31.8005C187.681 32.5916 187.26 33.9697 187.26 35.9347V46.5H181.901V25.2929H187.26V28.585ZM195.999 35.8199C195.999 33.6762 196.42 31.775 197.263 30.1162C198.13 28.4574 199.291 27.1814 200.746 26.2882C202.226 25.395 203.872 24.9484 205.684 24.9484C207.266 24.9484 208.645 25.2674 209.818 25.9054C211.018 26.5434 211.975 27.3472 212.689 28.317V25.2929H218.087V46.5H212.689V43.3993C212 44.3946 211.043 45.224 209.818 45.8875C208.619 46.5255 207.228 46.8445 205.646 46.8445C203.86 46.8445 202.226 46.3852 200.746 45.4664C199.291 44.5477 198.13 43.259 197.263 41.6002C196.42 39.9158 195.999 37.9891 195.999 35.8199ZM212.689 35.8964C212.689 34.5949 212.434 33.4848 211.924 32.5661C211.413 31.6218 210.724 30.9073 209.857 30.4224C208.989 29.912 208.058 29.6568 207.062 29.6568C206.067 29.6568 205.148 29.8992 204.306 30.3841C203.464 30.869 202.775 31.5836 202.239 32.5278C201.729 33.4465 201.473 34.5439 201.473 35.8199C201.473 37.0959 201.729 38.2188 202.239 39.1885C202.775 40.1328 203.464 40.8601 204.306 41.3705C205.174 41.8809 206.093 42.1361 207.062 42.1361C208.058 42.1361 208.989 41.8936 209.857 41.4088C210.724 40.8984 211.413 40.1838 211.924 39.2651C212.434 38.3208 212.689 37.198 212.689 35.8964ZM221.943 35.8199C221.943 33.6762 222.364 31.775 223.206 30.1162C224.074 28.4574 225.235 27.1814 226.69 26.2882C228.17 25.395 229.816 24.9484 231.628 24.9484C233.21 24.9484 234.588 25.2674 235.762 25.9054C236.962 26.5434 237.919 27.3472 238.633 28.317V25.2929H244.031V46.5H238.633V43.3993C237.944 44.3946 236.987 45.224 235.762 45.8875C234.563 46.5255 233.172 46.8445 231.59 46.8445C229.803 46.8445 228.17 46.3852 226.69 45.4664C225.235 44.5477 224.074 43.259 223.206 41.6002C222.364 39.9158 221.943 37.9891 221.943 35.8199ZM238.633 35.8964C238.633 34.5949 238.378 33.4848 237.868 32.5661C237.357 31.6218 236.668 30.9073 235.8 30.4224C234.933 29.912 234.001 29.6568 233.006 29.6568C232.011 29.6568 231.092 29.8992 230.25 30.3841C229.408 30.869 228.719 31.5836 228.183 32.5278C227.672 33.4465 227.417 34.5439 227.417 35.8199C227.417 37.0959 227.672 38.2188 228.183 39.1885C228.719 40.1328 229.408 40.8601 230.25 41.3705C231.117 41.8809 232.036 42.1361 233.006 42.1361C234.001 42.1361 234.933 41.8936 235.8 41.4088C236.668 40.8984 237.357 40.1838 237.868 39.2651C238.378 38.3208 238.633 37.198 238.633 35.8964Z" fill="#0A2E78"/>
</svg>
