<svg width="430" height="148" viewBox="0 0 430 148" fill="none" xmlns="http://www.w3.org/2000/svg">
<rect width="430" height="148" rx="16" fill="#0A2E78"/>
<path d="M78 38C68.4522 38 59.2955 41.7928 52.5442 48.5442C45.7928 55.2955 42 64.4522 42 74" stroke="white" stroke-width="18"/>
<path d="M42 78C42 87.5478 45.7928 96.7045 52.5442 103.456C59.2955 110.207 68.4522 114 78 114" stroke="white" stroke-width="18"/>
<path d="M82 114C91.5478 114 100.705 110.207 107.456 103.456C114.207 96.7045 118 87.5478 118 78" stroke="white" stroke-width="18"/>
<path d="M118 64V80" stroke="white" stroke-width="18"/>
<path d="M117 34H105C102.239 34 100 36.2386 100 39V51C100 53.7614 102.239 56 105 56H117C119.761 56 122 53.7614 122 51V39C122 36.2386 119.761 34 117 34Z" fill="white"/>
<path d="M174.794 94.906C171.005 94.906 167.525 94.0167 164.354 92.238C161.183 90.4593 158.67 88.004 156.814 84.872C154.958 81.7013 154.03 78.1247 154.03 74.142C154.03 70.198 154.958 66.66 156.814 63.528C158.67 60.3573 161.183 57.8827 164.354 56.104C167.525 54.3253 171.005 53.436 174.794 53.436C178.622 53.436 182.102 54.3253 185.234 56.104C188.405 57.8827 190.899 60.3573 192.716 63.528C194.572 66.66 195.5 70.198 195.5 74.142C195.5 78.1247 194.572 81.7013 192.716 84.872C190.899 88.004 188.405 90.4593 185.234 92.238C182.063 94.0167 178.583 94.906 174.794 94.906ZM174.794 87.656C177.23 87.656 179.376 87.1147 181.232 86.032C183.088 84.9107 184.538 83.3253 185.582 81.276C186.626 79.2267 187.148 76.8487 187.148 74.142C187.148 71.4353 186.626 69.0767 185.582 67.066C184.538 65.0167 183.088 63.4507 181.232 62.368C179.376 61.2853 177.23 60.744 174.794 60.744C172.358 60.744 170.193 61.2853 168.298 62.368C166.442 63.4507 164.992 65.0167 163.948 67.066C162.904 69.0767 162.382 71.4353 162.382 74.142C162.382 76.8487 162.904 79.2267 163.948 81.276C164.992 83.3253 166.442 84.9107 168.298 86.032C170.193 87.1147 172.358 87.656 174.794 87.656ZM209.661 67.356C210.705 65.6547 212.058 64.3207 213.721 63.354C215.422 62.3873 217.356 61.904 219.521 61.904V70.43H217.375C214.823 70.43 212.89 71.0293 211.575 72.228C210.299 73.4267 209.661 75.5147 209.661 78.492V94.5H201.541V62.368H209.661V67.356ZM222.902 78.318C222.902 75.07 223.54 72.1893 224.816 69.676C226.131 67.1627 227.91 65.2293 230.152 63.876C232.395 62.5227 234.889 61.846 237.634 61.846C239.722 61.846 241.714 62.31 243.608 63.238C245.503 64.1273 247.011 65.326 248.132 66.834V51.58H256.368V94.5H248.132V89.744C247.127 91.3293 245.716 92.6053 243.898 93.572C242.081 94.5387 239.974 95.022 237.576 95.022C234.87 95.022 232.395 94.326 230.152 92.934C227.91 91.542 226.131 89.5893 224.816 87.076C223.54 84.524 222.902 81.6047 222.902 78.318ZM248.19 78.434C248.19 76.462 247.804 74.78 247.03 73.388C246.257 71.9573 245.213 70.8747 243.898 70.14C242.584 69.3667 241.172 68.98 239.664 68.98C238.156 68.98 236.764 69.3473 235.488 70.082C234.212 70.8167 233.168 71.8993 232.356 73.33C231.583 74.722 231.196 76.3847 231.196 78.318C231.196 80.2513 231.583 81.9527 232.356 83.422C233.168 84.8527 234.212 85.9547 235.488 86.728C236.803 87.5013 238.195 87.888 239.664 87.888C241.172 87.888 242.584 87.5207 243.898 86.786C245.213 86.0127 246.257 84.93 247.03 83.538C247.804 82.1073 248.19 80.406 248.19 78.434ZM262.211 78.318C262.211 75.07 262.849 72.1893 264.125 69.676C265.44 67.1627 267.199 65.2293 269.403 63.876C271.646 62.5227 274.14 61.846 276.885 61.846C279.282 61.846 281.37 62.3293 283.149 63.296C284.966 64.2627 286.416 65.4807 287.499 66.95V62.368H295.677V94.5H287.499V89.802C286.455 91.31 285.005 92.5667 283.149 93.572C281.332 94.5387 279.224 95.022 276.827 95.022C274.12 95.022 271.646 94.326 269.403 92.934C267.199 91.542 265.44 89.5893 264.125 87.076C262.849 84.524 262.211 81.6047 262.211 78.318ZM287.499 78.434C287.499 76.462 287.112 74.78 286.339 73.388C285.566 71.9573 284.522 70.8747 283.207 70.14C281.892 69.3667 280.481 68.98 278.973 68.98C277.465 68.98 276.073 69.3473 274.797 70.082C273.521 70.8167 272.477 71.8993 271.665 73.33C270.892 74.722 270.505 76.3847 270.505 78.318C270.505 80.2513 270.892 81.9527 271.665 83.422C272.477 84.8527 273.521 85.9547 274.797 86.728C276.112 87.5013 277.504 87.888 278.973 87.888C280.481 87.888 281.892 87.5207 283.207 86.786C284.522 86.0127 285.566 84.93 286.339 83.538C287.112 82.1073 287.499 80.406 287.499 78.434ZM311.727 67.356C312.771 65.6547 314.125 64.3207 315.787 63.354C317.489 62.3873 319.422 61.904 321.587 61.904V70.43H319.441C316.889 70.43 314.956 71.0293 313.641 72.228C312.365 73.4267 311.727 75.5147 311.727 78.492V94.5H303.607V62.368H311.727V67.356ZM324.969 78.318C324.969 75.07 325.607 72.1893 326.883 69.676C328.197 67.1627 329.957 65.2293 332.161 63.876C334.403 62.5227 336.897 61.846 339.643 61.846C342.04 61.846 344.128 62.3293 345.907 63.296C347.724 64.2627 349.174 65.4807 350.257 66.95V62.368H358.435V94.5H350.257V89.802C349.213 91.31 347.763 92.5667 345.907 93.572C344.089 94.5387 341.982 95.022 339.585 95.022C336.878 95.022 334.403 94.326 332.161 92.934C329.957 91.542 328.197 89.5893 326.883 87.076C325.607 84.524 324.969 81.6047 324.969 78.318ZM350.257 78.434C350.257 76.462 349.87 74.78 349.097 73.388C348.323 71.9573 347.279 70.8747 345.965 70.14C344.65 69.3667 343.239 68.98 341.731 68.98C340.223 68.98 338.831 69.3473 337.555 70.082C336.279 70.8167 335.235 71.8993 334.423 73.33C333.649 74.722 333.263 76.3847 333.263 78.318C333.263 80.2513 333.649 81.9527 334.423 83.422C335.235 84.8527 336.279 85.9547 337.555 86.728C338.869 87.5013 340.261 87.888 341.731 87.888C343.239 87.888 344.65 87.5207 345.965 86.786C347.279 86.0127 348.323 84.93 349.097 83.538C349.87 82.1073 350.257 80.406 350.257 78.434ZM364.277 78.318C364.277 75.07 364.915 72.1893 366.191 69.676C367.506 67.1627 369.265 65.2293 371.469 63.876C373.712 62.5227 376.206 61.846 378.951 61.846C381.349 61.846 383.437 62.3293 385.215 63.296C387.033 64.2627 388.483 65.4807 389.565 66.95V62.368H397.743V94.5H389.565V89.802C388.521 91.31 387.071 92.5667 385.215 93.572C383.398 94.5387 381.291 95.022 378.893 95.022C376.187 95.022 373.712 94.326 371.469 92.934C369.265 91.542 367.506 89.5893 366.191 87.076C364.915 84.524 364.277 81.6047 364.277 78.318ZM389.565 78.434C389.565 76.462 389.179 74.78 388.405 73.388C387.632 71.9573 386.588 70.8747 385.273 70.14C383.959 69.3667 382.547 68.98 381.039 68.98C379.531 68.98 378.139 69.3473 376.863 70.082C375.587 70.8167 374.543 71.8993 373.731 73.33C372.958 74.722 372.571 76.3847 372.571 78.318C372.571 80.2513 372.958 81.9527 373.731 83.422C374.543 84.8527 375.587 85.9547 376.863 86.728C378.178 87.5013 379.57 87.888 381.039 87.888C382.547 87.888 383.959 87.5207 385.273 86.786C386.588 86.0127 387.632 84.93 388.405 83.538C389.179 82.1073 389.565 80.406 389.565 78.434Z" fill="white"/>
</svg>
