<svg width="66" height="66" viewBox="0 0 66 66" fill="none" xmlns="http://www.w3.org/2000/svg">
<path d="M33 9.23999C26.6985 9.23999 20.655 11.7433 16.1991 16.1991C11.7433 20.655 9.24001 26.6984 9.24001 33" stroke="#0A2E78" stroke-width="11.88"/>
<path d="M9.24001 35.64C9.24001 41.9416 11.7433 47.985 16.1991 52.4409C20.655 56.8967 26.6985 59.4 33 59.4" stroke="#0A2E78" stroke-width="11.88"/>
<path d="M35.64 59.4C41.9415 59.4 47.985 56.8967 52.4409 52.4409C56.8967 47.985 59.4 41.9416 59.4 35.64" stroke="#0A2E78" stroke-width="11.88"/>
<path d="M59.4 26.4V36.96" stroke="#0A2E78" stroke-width="11.88"/>
<path d="M58.74 6.59998H50.82C48.9975 6.59998 47.52 8.07744 47.52 9.89998V17.82C47.52 19.6425 48.9975 21.12 50.82 21.12H58.74C60.5625 21.12 62.04 19.6425 62.04 17.82V9.89998C62.04 8.07744 60.5625 6.59998 58.74 6.59998Z" fill="#0AAFC3"/>
</svg>
