<svg preserveAspectRatio="none" width="100%" height="100%" overflow="visible" style="display: block;" viewBox="0 0 12 12" fill="none" xmlns="http://www.w3.org/2000/svg">
<g id="SVG">
<path id="Vector" d="M1.5 3H7V8.5H1.5V3Z" stroke="#185C8D" stroke-width="0.9" stroke-linecap="round" stroke-linejoin="round"/>
<path id="Vector_2" d="M7 5H9L10.5 6.5V8.5H7V5Z" stroke="#185C8D" stroke-width="0.9" stroke-linecap="round" stroke-linejoin="round"/>
<path id="Vector_3" d="M3.5 10.5C4.05228 10.5 4.5 10.0523 4.5 9.5C4.5 8.94772 4.05228 8.5 3.5 8.5C2.94772 8.5 2.5 8.94772 2.5 9.5C2.5 10.0523 2.94772 10.5 3.5 10.5Z" stroke="#185C8D" stroke-width="0.9" stroke-linecap="round" stroke-linejoin="round"/>
<path id="Vector_4" d="M9 10.5C9.55228 10.5 10 10.0523 10 9.5C10 8.94772 9.55228 8.5 9 8.5C8.44772 8.5 8 8.94772 8 9.5C8 10.0523 8.44772 10.5 9 10.5Z" stroke="#185C8D" stroke-width="0.9" stroke-linecap="round" stroke-linejoin="round"/>
</g>
</svg>
