<svg preserveAspectRatio="none" width="100%" height="100%" overflow="visible" style="display: block;" viewBox="0 0 22 22" fill="none" xmlns="http://www.w3.org/2000/svg">
<g id="SVG">
<path id="Vector" d="M18.3333 9.16667C18.3333 13.75 11 19.25 11 19.25C11 19.25 3.66667 13.75 3.66667 9.16667C3.66667 7.22175 4.43928 5.35648 5.81455 3.98122C7.18982 2.60595 9.05508 1.83333 11 1.83333C12.9449 1.83333 14.8102 2.60595 16.1855 3.98122C17.5607 5.35648 18.3333 7.22175 18.3333 9.16667Z" stroke="#185C8D" stroke-width="1.65" stroke-linecap="round" stroke-linejoin="round"/>
<path id="Vector_2" d="M11 11.4583C12.2657 11.4583 13.2917 10.4323 13.2917 9.16667C13.2917 7.90101 12.2657 6.875 11 6.875C9.73435 6.875 8.70833 7.90101 8.70833 9.16667C8.70833 10.4323 9.73435 11.4583 11 11.4583Z" stroke="#185C8D" stroke-width="1.65" stroke-linecap="round" stroke-linejoin="round"/>
</g>
</svg>
