<svg preserveAspectRatio="none" width="100%" height="100%" overflow="visible" style="display: block;" viewBox="0 0 20 20" fill="none" xmlns="http://www.w3.org/2000/svg">
<g id="Frame">
<path id="Vector" d="M15 5.83333C10.8333 2.5 5 5 5 10C5 13.3333 8.33333 15.8333 11.6667 15.8333C14.1667 15.8333 16.6667 14.1667 16.6667 11.6667" stroke="#185C8D" stroke-width="1.5" stroke-linecap="round" stroke-linejoin="round"/>
<path id="Vector_2" d="M6.66667 7.5L3.33333 5M5.83333 10H2.5M6.66667 12.5L3.33333 15M11.6667 5.83333C12.5 8.33333 12.5 10.8333 10.8333 12.5M15 7.5L17.5 5.83333M15.8333 10H18.3333" stroke="#185C8D" stroke-width="1.5" stroke-linecap="round" stroke-linejoin="round"/>
<path id="Vector_3" d="M14.1667 6.66667C14.6269 6.66667 15 6.29357 15 5.83333C15 5.3731 14.6269 5 14.1667 5C13.7064 5 13.3333 5.3731 13.3333 5.83333C13.3333 6.29357 13.7064 6.66667 14.1667 6.66667Z" stroke="#185C8D" stroke-width="1.5" stroke-linecap="round" stroke-linejoin="round"/>
</g>
</svg>
