<svg preserveAspectRatio="none" width="100%" height="100%" overflow="visible" style="display: block;" viewBox="0 0 20 20" fill="none" xmlns="http://www.w3.org/2000/svg">
<g id="SVG">
<path id="Vector" d="M7.5 17.9167C8.19036 17.9167 8.75 17.357 8.75 16.6667C8.75 15.9763 8.19036 15.4167 7.5 15.4167C6.80964 15.4167 6.25 15.9763 6.25 16.6667C6.25 17.357 6.80964 17.9167 7.5 17.9167Z" stroke="#185C8D" stroke-width="1.5" stroke-linecap="round" stroke-linejoin="round"/>
<path id="Vector_2" d="M15 17.9167C15.6904 17.9167 16.25 17.357 16.25 16.6667C16.25 15.9763 15.6904 15.4167 15 15.4167C14.3096 15.4167 13.75 15.9763 13.75 16.6667C13.75 17.357 14.3096 17.9167 15 17.9167Z" stroke="#185C8D" stroke-width="1.5" stroke-linecap="round" stroke-linejoin="round"/>
<path id="Vector_3" d="M2.5 3.33333H4.16667L6.16667 12.0833C6.26115 12.45 6.47768 12.7736 6.78062 13.0008C7.08356 13.228 7.45485 13.3453 7.83333 13.3333H14.3333C14.7232 13.3412 15.1036 13.2121 15.4081 12.9685C15.7126 12.7248 15.9221 12.3821 16 12L17.5 6.66667H5.83333" stroke="#185C8D" stroke-width="1.5" stroke-linecap="round" stroke-linejoin="round"/>
</g>
</svg>
